PathFileType	4	(X/Y/Z)	C:\Users\WrightLab\Desktop\Jo\P1.2Trial9.trc
DataRate	CameraRate	NumFrames	NumMarkers	Units	OrigDataRate	OrigDataStartFrame	OrigNumFrames
100.00	100.00	       18	19	mm	100.00	202	       538
Frame#	Time	Headset_Front			Headset_Back			Headset_Left			Headset_Right			Left_Shoulder			Right_Shoulder			Sternum			C7			Left Elbow			Right Elbow			Left Wrist			Right Wrist			Left ASIS			Right ASIS			S2			Left Knee			Right Knee			Left Ankle			Right Ankle			
		X1	Y1	Z1	X2	Y2	Z2	X3	Y3	Z3	X4	Y4	Z4	X5	Y5	Z5	X6	Y6	Z6	X7	Y7	Z7	X8	Y8	Z8	X9	Y9	Z9	X10	Y10	Z10	X11	Y11	Z11	X12	Y12	Z12	X13	Y13	Z13	X14	Y14	Z14	X15	Y15	Z15	X16	Y16	Z16	X17	Y17	Z17	X18	Y18	Z18	X19	Y19	Z19	

202	2.010	-515.68365	1397.16589	230.66365	-637.12860	1510.68042	-25.58081	-486.71924	1453.00183	30.42794	-656.84576	1432.66467	183.72833	-422.66550	1245.44849	-88.51331	-775.45142	1248.22107	144.77538	-533.26166	1183.83826	131.03160	-661.82892	1303.13647	-64.51710	-411.51959	963.71173	-176.70183	-861.74915	1004.37982	183.23726	-304.73557	754.33765	-133.12373	-872.96704	769.00867	310.24850	-436.91730	869.77319	64.54589	-682.15381	865.65631	191.48039	-683.89581	908.49866	-120.45058	-386.01480	460.44763	140.53944	-720.25757	446.62772	218.38864	-574.91742	191.71915	-69.83431	-749.45239	108.77180	196.01704	
203	2.020	-511.91663	1398.25891	238.92775	-634.19489	1513.03821	-17.25102	-483.58810	1454.60229	38.38487	-652.21143	1433.79700	193.95044	-419.69193	1247.40015	-81.39560	-771.96118	1251.21228	155.16330	-529.73340	1186.00037	138.56894	-658.60553	1305.11768	-56.19003	-409.87286	965.38953	-168.91180	-858.10107	1008.21204	195.45479	-302.57996	756.23059	-127.02806	-863.16602	774.03870	326.90845	-433.11017	872.35974	71.98892	-678.38501	868.14093	199.91461	-681.75671	910.25787	-111.71149	-380.16342	466.71030	150.69151	-720.38354	444.36224	219.90846	-567.64435	186.76312	-43.59305	-750.10120	108.95062	196.48335	
204	2.030	-509.06824	1400.45898	247.83409	-630.90375	1514.50256	-8.14082	-479.51437	1455.68140	46.02410	-648.31067	1434.97302	202.36295	-416.69052	1249.04114	-74.34548	-768.39471	1253.85437	162.54460	-526.58527	1187.45129	146.27116	-655.70105	1306.54065	-47.48624	-409.32837	968.46185	-164.88445	-853.84668	1011.69849	207.48238	-300.20480	757.73724	-119.84506	-854.30957	779.52625	344.34280	-429.83701	873.48816	79.62827	-674.94867	870.40814	208.58397	-680.45490	911.95160	-103.49679	-373.85028	472.29718	160.51228	-719.87195	442.18198	221.80434	-555.37561	182.56265	-18.19987	-750.33185	108.47165	196.10025	
205	2.040	-503.60318	1399.56042	255.28233	-627.51868	1515.72717	0.16527	-476.41608	1457.19617	54.38525	-644.13159	1435.53284	210.95662	-413.86871	1250.21570	-67.40753	-764.13916	1256.45508	172.01329	-522.74976	1189.22937	153.92120	-652.65698	1308.06335	-38.64040	-406.39786	968.81488	-156.25319	-850.00537	1014.86902	219.52290	-297.28552	759.29865	-114.44942	-844.63232	784.31219	361.04678	-426.73035	875.31470	87.66679	-670.86572	872.04022	217.35005	-678.69104	913.68518	-95.71998	-367.60623	477.81708	169.48055	-719.57813	440.45959	223.49498	-543.43304	177.03415	4.72750	-751.16699	107.08128	194.91992	
206	2.050	-500.23547	1400.88062	263.15027	-623.85645	1516.60229	9.07697	-472.80182	1457.70483	61.84417	-640.02820	1436.19080	219.02623	-410.98135	1250.83240	-59.40993	-759.90704	1259.03662	181.00250	-519.54895	1190.60315	162.22398	-649.58649	1309.21643	-31.48418	-404.87509	968.80432	-147.47356	-845.88287	1017.17358	231.02657	-294.56552	760.38123	-108.04343	-834.85114	789.02551	376.64734	-422.01666	877.09418	94.93612	-666.63489	872.31708	225.68428	-677.04724	914.61505	-87.39945	-361.20779	483.44263	179.65646	-719.06451	439.23401	225.06290	-530.93481	171.14314	27.98919	-750.90985	105.27522	194.89824	
207	2.060	-495.42416	1401.09729	271.49301	-620.18774	1517.17078	17.34921	-468.54556	1458.24341	69.12233	-636.11212	1436.66699	227.26607	-407.91986	1251.28894	-52.24638	-755.79523	1260.15271	189.77257	-515.28046	1191.07117	169.39503	-645.97943	1309.80872	-22.93605	-402.85052	970.14539	-141.30287	-842.44635	1020.15344	242.00447	-292.02490	760.33313	-102.27195	-825.82086	793.11566	392.60052	-418.30420	877.80780	102.06347	-663.04065	874.10889	234.25835	-674.79199	914.85413	-79.19728	-355.53757	487.35764	188.76749	-718.36157	439.20776	227.73482	-515.68970	165.37158	49.49924	-750.82312	103.62291	194.77553	
208	2.070	-491.21399	1401.17188	279.23724	-616.23676	1517.80042	24.68750	-464.76883	1459.03479	77.72080	-631.28046	1436.99512	235.49173	-404.52737	1251.30188	-45.72429	-751.49799	1260.99963	198.85593	-511.31885	1191.88220	176.86171	-642.57208	1309.88696	-14.90857	-400.07086	969.59906	-134.42149	-838.78595	1022.39093	252.55516	-289.30103	761.14929	-96.32940	-816.40564	797.29932	407.36554	-414.43817	878.84784	109.79431	-658.32672	874.69482	244.40009	-671.80103	914.30133	-70.80904	-350.94754	491.61096	198.50764	-715.16632	437.58957	229.17084	-499.93478	159.13191	72.58523	-749.16925	103.60196	194.62009	
209	2.080	-486.12979	1400.90527	286.71533	-612.35791	1517.85522	33.26747	-460.62717	1458.86633	86.27845	-626.84924	1437.14819	243.80360	-401.16263	1250.80859	-38.42562	-745.90741	1262.11365	206.53839	-507.19653	1192.03882	184.76720	-638.81848	1310.34583	-6.68734	-397.83005	969.52509	-126.51418	-835.16248	1023.42133	263.52100	-286.25876	760.25018	-89.88110	-806.52960	800.84753	421.85388	-410.41205	879.13580	116.91833	-654.10754	875.85565	253.44646	-670.03522	914.68811	-62.92760	-345.99869	494.52240	208.52155	-713.56274	437.16183	232.85475	-482.36594	152.21574	94.87664	-749.11938	102.19659	194.94786	
210	2.090	-482.05078	1401.43469	294.56134	-608.17786	1517.86096	41.50072	-456.53818	1458.38916	93.88364	-622.19885	1437.24829	251.74146	-397.46286	1249.60852	-30.08347	-741.97028	1262.73657	215.78905	-502.80960	1191.86633	192.63051	-634.89020	1309.99707	1.15933	-394.92966	969.93927	-120.65727	-831.87939	1025.46570	273.98349	-282.92737	760.21735	-84.07075	-796.83331	803.76508	436.70142	-406.77924	878.42841	124.41367	-650.37183	874.29681	261.34427	-667.90015	914.40741	-55.57770	-341.26721	497.17172	216.72389	-711.57043	436.12686	236.38087	-464.09384	147.62062	116.84030	-748.33899	100.08752	194.42085	
211	2.100	-477.62585	1400.77197	302.58817	-603.84229	1517.82727	49.77953	-452.00803	1458.38123	100.88715	-618.08289	1437.14478	260.25729	-393.66476	1248.99170	-23.57984	-736.97754	1262.59143	222.92708	-498.67667	1190.92163	200.20392	-630.89282	1310.23157	9.40612	-392.75732	968.88434	-113.49212	-827.82245	1026.15442	285.25470	-280.02420	758.80017	-77.06738	-786.55829	806.46918	449.90253	-402.26434	877.86481	131.88094	-646.34509	874.58368	268.93762	-665.26648	913.82788	-47.60396	-336.24680	499.27557	226.23151	-708.80188	435.28055	240.80525	-444.37610	142.94115	139.71129	-748.18054	97.94695	194.10951	
212	2.110	-472.46384	1400.16016	310.16318	-599.25800	1517.92407	57.58618	-447.41940	1457.84229	109.53517	-612.97699	1435.89355	268.03360	-389.48169	1247.48340	-15.66842	-732.11273	1262.25916	232.54396	-494.18259	1190.61401	209.00594	-626.79553	1309.23218	17.29509	-388.83826	966.81171	-104.72491	-825.23615	1027.32031	295.31207	-276.82092	758.19354	-71.74789	-776.83966	808.55487	463.46500	-398.42032	876.95959	138.78772	-642.04626	873.88129	278.25385	-661.99707	912.73962	-38.65158	-331.68033	500.75244	235.81795	-705.32587	434.02814	244.90753	-424.15268	139.35190	161.57114	-748.07031	97.89472	194.23592	
213	2.120	-467.73846	1399.32629	318.00977	-594.55048	1517.46851	65.82809	-442.48938	1457.07458	116.95090	-608.09698	1435.75562	275.98538	-385.75021	1246.19690	-7.83645	-726.99280	1261.88904	242.18596	-489.54486	1189.46228	216.55865	-622.55249	1308.60791	25.78499	-385.80121	965.28937	-96.27835	-820.43628	1028.02576	306.09375	-274.30438	756.42303	-64.98617	-766.71722	810.66388	476.43790	-394.63757	875.94562	146.03290	-637.91772	873.14331	286.48157	-658.69196	911.68884	-30.80539	-327.50500	502.25241	245.04170	-700.91760	432.36432	248.04156	-403.14706	136.79387	182.55965	-748.19800	97.21254	194.39319	
214	2.130	-461.67609	1398.11853	325.89496	-589.76459	1516.64233	74.14007	-438.23456	1456.40491	124.67992	-603.18561	1435.16504	284.31073	-381.37848	1244.67249	-0.52208	-722.22284	1261.11951	249.45143	-484.31927	1188.05579	224.03918	-618.14508	1308.07605	32.74736	-381.43323	964.46204	-90.19720	-812.49670	1026.53625	320.30420	-270.87292	754.57513	-58.16933	-757.41620	812.28076	489.85501	-390.22507	874.26019	152.64609	-633.59735	871.96912	295.58801	-654.93976	910.79852	-23.50247	-323.33685	502.31085	254.13095	-696.76740	431.20697	252.85611	-381.94708	135.11806	204.19020	-749.42462	96.19878	195.04797	
215	2.140	-456.40186	1396.68164	333.44995	-584.72992	1516.14807	81.81618	-432.99658	1455.45874	133.02483	-597.98389	1434.10999	292.10379	-377.37653	1242.95984	7.08905	-716.85028	1259.54053	257.82123	-479.38635	1187.02661	232.41411	-613.79163	1306.68994	41.23417	-377.85556	962.87946	-81.85858	-808.57245	1026.92773	330.64444	-267.73032	753.18518	-52.30294	-747.57050	813.68884	501.64960	-387.26981	871.80048	160.52655	-629.65009	870.33685	303.40192	-650.75049	909.07306	-15.45430	-319.37399	502.09271	263.12225	-692.63971	430.27032	258.04340	-360.84982	132.99530	225.52744	-745.64832	95.76663	195.26189	
216	2.150	-451.48682	1395.95447	341.23206	-579.60455	1514.89063	90.16087	-427.60229	1454.12378	140.87900	-592.49561	1433.43518	300.50336	-372.09366	1241.11633	16.26209	-712.89215	1258.63794	264.74948	-474.96075	1185.32031	241.16476	-608.59326	1305.88257	50.38135	-374.53232	960.77240	-73.79985	-800.83057	1025.47131	341.54456	-263.85901	751.74329	-46.45855	-738.14209	814.99420	513.58966	-382.35803	871.26373	169.27362	-625.98688	869.36005	309.94339	-646.51855	907.81989	-7.40828	-315.35913	501.72452	272.31937	-687.92126	429.00400	262.97662	-338.60504	134.15930	246.51685	-744.99658	95.66619	195.65739	
217	2.160	-446.70248	1395.05688	350.40161	-574.02063	1514.00574	98.24834	-421.95636	1452.55322	148.71802	-586.97565	1432.28784	308.69156	-367.62436	1239.34033	23.98957	-707.03723	1257.27039	274.96976	-469.65732	1183.86719	248.98125	-603.64264	1304.62573	57.92555	-370.31467	958.97974	-64.85165	-793.96997	1023.81403	351.69135	-261.17493	749.95709	-39.02784	-728.90497	815.93689	524.78772	-378.82544	868.84204	177.26857	-621.42212	867.89410	319.40494	-641.18933	905.62738	-0.87440	-311.14859	500.22800	281.54874	-684.13617	428.35541	268.52451	-316.63950	134.12447	266.89517	-745.64276	94.76794	196.94843	
218	2.170	-439.81418	1392.97717	357.84515	-568.42346	1512.51147	106.96345	-416.66443	1450.98523	156.61024	-581.19055	1430.94885	316.84012	-362.39993	1237.59802	32.59935	-701.28442	1255.52856	283.70230	-464.33008	1181.97156	257.85699	-598.36456	1303.11157	67.11893	-366.75394	957.03577	-57.18660	-786.72125	1022.20850	361.54254	-257.36929	747.20990	-31.06854	-719.54382	815.92609	535.51117	-374.38007	867.26569	185.10143	-617.01691	865.55127	326.98706	-635.84540	904.99841	5.99833	-306.66397	499.46155	290.79547	-679.83118	426.77124	273.53418	-294.84781	135.94012	287.49069	-745.06995	95.05933	198.49467	
219	2.180	-434.21127	1391.95715	365.89194	-562.71069	1511.25098	114.06133	-411.00812	1449.47156	163.85170	-575.16119	1429.51343	325.00937	-356.94736	1235.92554	41.34455	-696.85101	1254.46716	291.32074	-458.42596	1180.16602	265.44775	-592.42114	1301.42200	75.08404	-362.57492	955.05878	-48.80071	-780.15515	1020.74823	371.17871	-254.05247	745.88300	-24.55009	-709.97681	815.77478	546.35712	-370.32126	864.50250	193.53532	-612.36169	863.97070	334.53473	-630.51978	903.25891	13.51512	-302.15564	497.70963	299.19531	-675.85492	424.83752	278.25421	-273.92105	139.22606	307.85419	-743.49402	92.91914	199.56602	
